<svg width="117" height="38" viewBox="0 0 117 38" fill="none" xmlns="http://www.w3.org/2000/svg">
<g clip-path="url(#clip0_7910_79)">
<mask id="mask0_7910_79" style="mask-type:luminance" maskUnits="userSpaceOnUse" x="0" y="0" width="117" height="37">
<path d="M116.567 0.584473H0.341797V36.9678H116.567V0.584473Z" fill="white"/>
</mask>
<g mask="url(#mask0_7910_79)">
<path d="M24.0788 25.7678C19.6133 24.9514 15.648 26.3537 12.3406 28.4956C11.4604 29.0623 9.42218 30.8295 8.40309 29.821C6.60576 28.0538 10.6359 23.6067 12.2386 21.215C13.8877 18.7466 15.926 15.7595 17.0192 10.9378C18.1217 6.06817 16.9914 1.49622 13.267 0.708618C10.0244 0.0266706 7.6156 2.55276 6.77252 5.77998C5.91093 9.06486 7.19868 13.1182 7.12458 15.3849C7.03193 18.324 6.87442 19.7647 2.75168 26.2769C2.01051 27.4486 0.630084 29.4369 0.379937 31.4731C0.120528 33.6246 1.00066 35.1229 1.98272 35.9297C3.37241 37.0727 6.34635 37.0631 7.95837 36.3331C10.886 35.0077 13.3782 33.0771 15.9352 33.4709C17.9271 33.7782 18.8999 36.41 22.2166 36.823C25.9966 37.2937 28.1182 35.4495 28.7019 33.1924C29.4708 30.1957 27.4604 26.3921 24.0603 25.7774L24.0788 25.7678Z" fill="black"/>
<path d="M40.3822 7.63485C37.7232 7.40432 35.4534 9.36373 35.9074 12.7062C36.3984 16.3465 39.2704 16.942 40.9288 19.2088C42.3648 21.1778 43.3283 22.2919 43.0967 25.7785C42.8095 29.947 40.2154 30.5233 39.3631 30.5905C38.5015 30.6578 35.7962 30.5905 36.0556 27.152C36.4262 22.2535 35.9815 19.6698 32.8964 15.7702C29.8112 11.8706 33.9433 9.69992 34.3602 6.00202C34.7678 2.42901 32.4053 1.07471 30.9137 0.882616C26.8095 0.344743 24.7528 3.6104 23.5577 5.83876C22.8628 7.1354 21.7232 10.2378 22.0383 12.8695C22.7516 18.7285 26.7447 19.4873 28.403 21.7252C30.9601 25.1734 28.4772 27.5074 29.8946 31.8392C30.8118 34.6342 32.498 35.6812 34.388 36.3919C36.139 37.045 39.8171 37.362 42.6057 36.171C49.656 33.1743 50.0822 22.6473 48.4887 17.1629C46.2652 9.49821 42.0869 7.78856 40.3822 7.63485Z" fill="black"/>
<path d="M63.7239 14.5979C60.9628 13.8487 60.0085 13.5702 56.7936 12.773C55.2376 12.3888 53.7735 11.5628 53.162 10.5543C52.2447 9.01749 52.6712 6.86599 53.8013 6.16484C56.1729 4.68566 58.3779 7.16374 58.3779 9.33445C58.3779 11.678 60.8703 13.3973 63.4089 12.7826C64.669 12.4752 66.4013 10.4774 65.9008 7.94171C65.2245 4.53198 63.6869 2.81271 60.8241 1.52565C57.1456 -0.126388 51.1517 0.680422 49.0394 5.30998C46.9826 9.82429 48.8726 13.7719 51.9204 15.7313C53.922 17.0183 57.2202 17.9884 60.6293 18.9489C62.5934 19.4964 64.8632 20.6682 65.6418 22.8869C66.503 25.3458 65.6043 28.2945 63.2512 28.7939C61.3518 29.1973 58.8692 27.9007 59.2582 25.6147C59.805 22.4451 57.9797 20.2456 55.9971 19.8614C54.663 19.6021 53.051 19.6405 51.7632 21.0236C50.5865 22.2818 50.1233 23.6937 50.0955 25.4994C50.0585 29.0917 51.0312 34.749 58.6837 36.3626C67.0313 38.1203 71.1445 32.876 72.1825 29.62C73.6184 25.1345 72.5346 16.9799 63.7239 14.5979Z" fill="black"/>
<path d="M114.538 8.59532C114.13 7.68286 113.63 6.74162 113.074 5.84833C112.083 4.01381 109.461 1.66061 107.96 1.05551C105.866 0.200669 103.078 0.690516 102.661 4.07144C102.059 8.90268 108.683 8.59532 109.414 13.6283C109.915 17.0957 106.681 18.6613 105.431 18.7381C103.254 18.8822 101.688 17.7776 101.021 16.673C100.122 15.1747 100.483 13.004 100.771 12.1588C101.475 10.0745 101.882 8.89312 101.382 6.24217C100.363 0.776963 95.8142 0.709731 94.2762 0.815381C92.1733 0.959455 86.8829 2.39058 83.3905 2.40019C80.5646 2.40019 78.6098 1.85271 76.5064 1.18037C73.4678 0.20067 71.6615 1.2476 70.4847 2.00639C68.2241 3.47594 66.3155 6.30939 67.2975 10.4107C67.668 11.9475 69.1413 12.9368 70.2159 13.052C71.8927 13.2345 73.477 12.3989 73.7735 10.5355C73.9313 9.54622 74.2741 8.20153 75.1168 7.54843C76.8122 6.22295 79.0913 6.5207 79.9993 7.56764C81.6854 9.51739 81.2779 14.0125 80.9629 16.6539C80.6756 19.0743 79.5918 22.1094 76.4694 26.3548C74.3481 29.2458 74.2648 34.0291 77.9057 36.0654C81.0276 37.8038 86.2528 36.5648 87.2164 31.7047C87.7631 28.9481 87.6706 25.279 87.1239 21.5043C86.6701 18.3635 86.4383 16.116 85.9938 12.0243C85.6228 8.65298 87.0406 7.25068 87.6891 6.58792C89.1065 5.11837 91.8953 5.24324 93.6276 8.04787C94.971 10.2186 91.2838 14.8866 94.6837 20.5246C95.9992 22.7049 99.1031 24.6931 102.17 24.7796C105.505 24.8756 108.776 23.7039 109.98 20.6687C109.98 20.6687 110.128 23.627 107.404 26.2492C104.597 28.9577 100.66 27.2769 99.0754 26.2971C96.824 24.8948 90.8203 23.6558 89.5325 28.8041C88.4579 33.0974 93.1461 36.584 97.9078 36.7857C98.3153 36.8049 99.7979 36.8337 100.131 36.8337C105.292 36.8337 111.277 34.0963 114.649 26.6622C118.142 18.9975 116.076 12.0723 114.529 8.63376L114.538 8.59532Z" fill="black"/>
</g>
</g>
<defs>
<clipPath id="clip0_7910_79">
<rect width="116.653" height="37" fill="white" transform="translate(0 0.12207)"/>
</clipPath>
</defs>
</svg>
