<svg width="118" height="37" viewBox="0 0 118 37" fill="none" xmlns="http://www.w3.org/2000/svg">
<g clip-path="url(#clip0_7910_201)">
<path d="M1.94531 4.37196C3.34237 4.04334 5.23527 3.85547 7.12817 3.85547C10.1027 3.85547 12.4012 4.27802 14.0688 5.92132C15.6011 7.28291 16.2771 9.53653 16.2771 11.7901C16.2771 14.6542 15.4208 16.673 14.1138 18.1755C12.5364 19.9126 9.92239 20.7108 7.89436 20.7108C7.53375 20.7108 7.21832 20.7108 6.90279 20.7108V30.6644H1.94531V4.37196ZM6.90279 16.4853C7.12817 16.5792 7.39862 16.5792 7.71406 16.5792C10.2379 16.5792 11.3646 14.7011 11.3646 12.2127C11.3646 9.86515 10.4633 8.0811 8.11964 8.0811C7.66898 8.0811 7.21832 8.17493 6.90279 8.26887V16.4853Z" fill="black"/>
<path d="M18.4844 4.97266H23.6748V26.4505H30.6112V30.6645H18.4844V4.97266Z" fill="black"/>
<path d="M36.5877 24.7838L35.4551 30.664H30.6074L36.18 4.97217H42.1604L47.1441 30.664H42.2964L41.209 24.7838H36.5877ZM40.7559 20.8939L39.8952 15.5113C39.6233 13.9281 39.3061 11.3951 39.0343 9.67634H38.8984C38.6266 11.3951 38.2642 14.0638 37.9923 15.5565L37.0409 20.8939H40.7559Z" fill="black"/>
<path d="M47.9482 25.1912C48.9727 25.7941 50.6654 26.2116 52.0908 26.2116C54.407 26.2116 55.5207 24.9594 55.5207 23.2432C55.5207 21.3415 54.407 20.4139 52.269 18.9297C48.8391 16.7496 47.5028 13.9667 47.5028 11.6012C47.5028 7.38049 50.2199 3.85547 55.4761 3.85547C57.1242 3.85547 58.6833 4.31931 59.4405 4.78304L58.6387 9.18935C57.9261 8.72562 56.857 8.30817 55.4315 8.30817C53.338 8.30817 52.3135 9.65319 52.3135 11.0447C52.3135 12.6217 53.0708 13.4102 55.788 15.1263C59.1287 17.2135 60.3759 19.9036 60.3759 22.6865C60.3759 27.5103 56.946 30.6643 52.0017 30.6643C49.9972 30.6643 47.9928 30.1078 47.1465 29.5975L47.9482 25.1912Z" fill="black"/>
<path d="M74.4466 30.0603C73.7548 30.432 72.4146 30.6643 70.7285 30.6643C64.4597 30.6643 61.4766 25.0888 61.4766 17.6548C61.4766 7.71183 66.6213 3.85547 71.377 3.85547C73.0631 3.85547 74.2304 4.22714 74.706 4.55242L73.8845 8.87335C73.3225 8.59467 72.7172 8.36228 71.6796 8.36228C68.9992 8.36228 66.5348 10.8713 66.5348 17.4225C66.5348 23.7414 68.7398 26.2039 71.6796 26.2039C72.501 26.2039 73.409 26.0181 73.971 25.8322L74.4466 30.0603Z" fill="black"/>
<path d="M91.2455 16.7755C91.2455 26.65 87.7836 30.6643 82.8634 30.6643C76.9867 30.6643 74.709 24.389 74.709 17.1908C74.709 10.0388 77.4879 3.8557 83.2279 3.8557C89.5151 3.80951 91.2455 10.777 91.2455 16.7755ZM79.9478 17.237C79.9478 23.1893 81.0412 26.2346 83.0912 26.2346C85.1863 26.2346 86.0071 22.3587 86.0071 17.0062C86.0071 12.4381 85.3233 8.23918 83.0456 8.23918C81.0412 8.23918 79.9478 11.6076 79.9478 17.237Z" fill="black"/>
<path d="M95.7059 30.664L91.2422 4.97217H96.5348L97.8227 15.1947C98.1917 18.1799 98.4217 21.12 98.6977 24.241H98.8357C99.2036 21.0748 99.7556 18.3157 100.309 15.1947L102.149 4.97217H106.245L107.993 15.1042C108.454 17.9991 108.914 20.8486 109.236 24.1958H109.328C109.696 20.8486 109.972 18.0895 110.341 15.1494L111.629 4.97217H116.598L111.997 30.664H106.751L105.186 22.2961C104.772 19.8987 104.358 16.9587 104.035 13.8376H103.943C103.483 16.9134 103.069 19.7631 102.517 22.2961L100.769 30.664H95.7059Z" fill="black"/>
</g>
<defs>
<clipPath id="clip0_7910_201">
<rect width="116.653" height="37" fill="white" transform="translate(0.945312)"/>
</clipPath>
</defs>
</svg>
