<svg width="197" height="37" viewBox="0 0 197 37" fill="none" xmlns="http://www.w3.org/2000/svg">
<g clip-path="url(#clip0_7910_201)">
<path d="M87.354 35.1373C87.0667 34.911 86.9579 34.4931 86.9579 34.1926C86.9579 33.7181 87.1494 33.5049 87.7849 33.2786C88.1899 33.1741 88.7949 32.9563 89.0082 32.4122C89.1911 31.942 89.043 31.3457 88.5512 30.5839L87.3888 28.9123L84.359 24.6157C84.0412 24.1628 83.5231 23.8973 82.9703 23.8973C82.6003 23.8973 82.2478 24.0149 81.9516 24.2369C81.2988 24.7245 80.9854 25.8345 81.0115 27.5366V29.9439C81.0115 31.498 81.1637 32.7301 83.0748 33.2872C83.7017 33.5092 83.8976 33.7269 83.8976 34.1971C83.8976 34.4408 83.8105 34.8892 83.4884 35.1417H70.7597C70.4942 34.911 70.3418 34.4931 70.3418 34.1971C70.3418 33.7443 70.5594 33.5223 71.2342 33.2829C73.0582 32.7517 73.4369 31.5459 73.4369 29.9003L73.3716 5.77929C73.3716 4.15989 72.4793 3.47209 71.7652 2.92358C71.2385 2.51873 70.8206 2.19661 70.7772 1.59586C70.7554 1.26066 71.0384 0.938522 71.4084 0.873223L78.6564 -0.450156C78.8654 -0.480627 79.0743 -0.498047 79.2658 -0.498047C80.463 -0.498047 81.0463 0.137516 81.0463 1.44784V19.8706C81.0463 20.4279 81.6993 20.7368 82.1302 20.3843L86.6096 16.7058C87.946 15.7046 88.3466 15.0255 88.377 14.255C88.4293 13.0013 87.1973 12.8315 86.5443 12.6574C85.9261 12.4353 85.7303 12.222 85.7303 11.7519C85.7303 11.5081 85.8173 11.0597 86.1394 10.8072L97.1182 10.8377C97.4055 11.0641 97.5143 11.482 97.5143 11.7824C97.5143 12.296 97.2923 12.6487 96.7308 12.6835C95.3769 12.7749 94.7284 13.2973 93.997 13.8719L88.0722 18.7562L97.079 30.8756C97.7842 31.8028 98.9378 32.669 99.9478 33.039L100.387 33.2786C100.888 33.5789 101.132 33.8269 101.188 34.1013C101.197 34.3364 101.197 34.3755 101.184 34.4234C101.158 34.5671 101.132 34.6498 101.097 34.7368C101.075 34.7934 101.045 34.8501 101.006 34.8935C100.927 34.9937 100.823 35.0764 100.679 35.1417H87.367L87.354 35.1373Z" fill="black"/>
<path d="M66.8673 32.1552C66.828 32.1552 66.728 32.177 66.6496 32.2031L66.4537 32.2509C66.2665 32.2901 66.088 32.3206 65.9183 32.3206C65.187 32.3206 64.6514 31.8852 64.3641 31.1234C64.2858 30.6577 64.2641 30.1527 64.2641 29.6477V20.8281C64.2641 15.3648 62.9886 12.6006 60.4332 11.2946C60.3026 11.2337 60.1677 11.1771 60.0284 11.1161C59.9196 11.0682 59.8107 11.016 59.6932 10.9681C59.445 10.8811 59.1795 10.7983 58.9096 10.72C58.8878 10.72 58.8792 10.7113 58.8705 10.7113C57.9693 10.4718 56.9681 10.3543 55.8625 10.3064H55.8407C55.475 10.2847 55.0876 10.2847 54.6828 10.2847H54.674C54.2865 10.2847 53.9035 10.2934 53.5161 10.3064C51.9925 10.3674 50.5167 10.5459 49.1586 10.8332C49.0889 10.8419 49.028 10.8549 48.9626 10.8723C48.7537 10.9202 48.5447 10.9725 48.3401 11.0204C48.1704 11.0682 47.9919 11.1074 47.8265 11.1597C47.7393 11.1814 47.6567 11.2075 47.5783 11.2293C44.3308 12.1914 41.9235 13.9022 41.9235 16.4575V16.6142C41.9235 18.4556 43.1729 20.1272 45.7631 20.1272C52.0404 20.1272 47.278 12.6136 53.0111 12.6136C55.3358 12.6136 56.1498 14.2373 56.1498 18.1291V18.7821C56.1498 20.0707 55.4662 20.5147 53.4072 20.7933C44.1393 22.0426 41.3489 24.5067 40.5175 28.0806C40.3781 28.5855 40.3086 29.1297 40.3086 29.713C40.3086 35.0806 45.6629 35.494 47.3084 35.494C47.3389 35.494 47.3564 35.4854 47.3868 35.4854C47.4259 35.4854 47.4565 35.494 47.4956 35.494C51.7617 35.494 54.0298 33.3436 55.5447 31.9506C55.8711 31.6546 56.2586 31.4151 56.3674 31.9201C56.6634 33.3958 57.9302 35.494 61.774 35.494H61.9613L62.6752 35.4723C64.7255 35.3852 65.914 34.7802 66.7628 33.374C66.8934 33.1651 67.0414 32.7821 67.0414 32.5209C67.0414 32.4121 67.0196 32.1552 66.8716 32.1552H66.8673ZM56.1453 25.1247C56.1453 25.3337 56.1453 25.5601 56.1149 25.8256C56.1149 25.8953 56.1062 25.9562 56.0931 26.0214C55.9147 27.8847 55.2835 28.6638 54.6871 29.1776C54.6478 29.2168 54.5999 29.2559 54.5477 29.3082C54.539 29.3082 54.5261 29.3168 54.5261 29.33C54.1211 29.7565 53.4464 30.3398 52.4844 30.588C52.4756 30.588 52.4626 30.5967 52.4452 30.5967C52.0708 30.7143 51.6616 30.7839 51.2176 30.7839C50.347 30.7839 49.6635 30.4965 49.2064 30.0003C49.1977 29.9916 49.1977 29.9786 49.1847 29.9786C48.8277 29.6216 48.6317 29.1558 48.549 28.5725C48.5273 28.4724 48.5186 28.3853 48.5186 28.2765C48.5099 28.2373 48.5099 28.1894 48.5099 28.1371V27.9804C48.5099 27.8934 48.5099 27.802 48.5186 27.7019C48.5795 26.5917 49.0019 25.3555 50.2293 24.4849C50.3077 24.4238 50.3992 24.3672 50.495 24.3064C50.5646 24.2584 50.6429 24.2062 50.7213 24.1671C51.0565 23.9711 51.444 23.7926 51.888 23.6534C52.4016 23.4749 53.0068 23.3574 53.6902 23.2877C54.9483 23.1571 55.6404 23.279 55.9277 23.932C55.9495 23.9625 55.9581 23.9798 55.967 24.0104C56.0758 24.2367 56.1237 24.524 56.1237 24.881V25.1204L56.1453 25.1247Z" fill="black"/>
<path d="M192.107 35.4936C191.814 35.4936 191.528 35.4807 191.292 35.4502C188.246 35.0627 186.499 32.9775 186.499 29.7214L186.477 5.81785C186.477 5.17792 186.329 4.61201 186.043 4.13315C185.729 3.61948 185.289 3.27992 184.898 2.97956L184.601 2.74449C184.171 2.39187 183.914 2.09586 183.892 1.6257C183.869 1.28615 184.149 0.964026 184.51 0.907429L191.762 -0.411593C191.975 -0.442067 192.189 -0.459473 192.384 -0.459473C192.698 -0.459473 192.964 -0.415946 193.177 -0.328882C193.404 -0.246171 193.574 -0.137337 193.726 0.0280847C193.786 0.10209 193.856 0.197856 193.913 0.297976C193.992 0.445992 194.047 0.61577 194.108 0.82907C194.131 0.998847 194.161 1.24698 194.161 1.48642V4.62943H194.178V29.8476C194.178 30.4657 194.256 30.9751 194.413 31.406C194.758 32.0415 195.253 32.3463 195.875 32.3463C196.041 32.3463 196.22 32.3245 196.402 32.2809L196.625 32.22C196.69 32.2026 196.781 32.1766 196.811 32.1766C197.086 32.1548 197.02 32.4029 196.99 32.5509C196.925 32.8774 196.786 33.3041 196.599 33.5739C195.95 34.5186 195.332 34.9801 194.222 35.2629C193.999 35.3283 193.804 35.3718 193.59 35.4023C193.434 35.4327 192.768 35.498 192.107 35.498V35.4936Z" fill="black"/>
<path d="M18.8531 0.236816C9.69408 0.236816 0.00390625 6.39661 0.00390625 18.1677C0.00390625 29.9388 9.38065 35.4935 18.1 35.4935C26.8195 35.4935 36.8927 29.277 36.8927 17.3972C36.8927 6.13107 26.6933 0.241175 18.8531 0.241175V0.236816ZM18.2394 2.75297C24.3861 2.73121 29.3573 9.2262 29.3791 17.5844C29.3791 18.0284 29.3704 18.4637 29.34 18.899C28.8351 18.1677 27.9731 17.7019 26.863 17.5408C25.6136 17.3537 24.0595 17.5801 22.4097 18.2547C19.3712 19.4911 17.1728 21.3847 12.7152 22.3555C11.8445 22.5427 11.0436 22.4947 10.3471 22.2685C8.94098 21.8244 7.92234 20.6752 7.49572 19.4562C7.26937 18.8032 7.14747 18.098 7.09959 17.3972V17.3666C7.19971 9.14784 12.1493 2.78345 18.2394 2.75297Z" fill="black"/>
<path d="M178.974 35.4936C178.681 35.4936 178.395 35.4807 178.159 35.4502C175.113 35.0627 173.367 32.9775 173.367 29.7214L173.344 5.81785C173.344 5.17792 173.196 4.61201 172.91 4.13315C172.596 3.61948 172.156 3.27992 171.765 2.97956L171.468 2.74449C171.038 2.39187 170.78 2.09586 170.759 1.6257C170.737 1.28615 171.016 0.964026 171.377 0.907429L178.629 -0.411593C178.843 -0.442067 179.056 -0.459473 179.252 -0.459473C179.565 -0.459473 179.831 -0.415946 180.044 -0.328882C180.271 -0.246171 180.44 -0.137337 180.593 0.0280847C180.653 0.10209 180.723 0.197856 180.78 0.297976C180.858 0.445992 180.914 0.61577 180.975 0.82907C180.998 0.998847 181.028 1.24698 181.028 1.48642V4.62943H181.046V29.8476C181.046 30.4657 181.123 30.9751 181.28 31.406C181.625 32.0415 182.12 32.3463 182.743 32.3463C182.908 32.3463 183.087 32.3245 183.27 32.2809L183.492 32.22C183.558 32.2026 183.649 32.1766 183.678 32.1766C183.953 32.1548 183.887 32.4029 183.858 32.5509C183.792 32.8774 183.653 33.3041 183.467 33.5739C182.817 34.5186 182.199 34.9801 181.089 35.2629C180.867 35.3283 180.671 35.3718 180.458 35.4023C180.301 35.4327 179.635 35.498 178.974 35.498V35.4936Z" fill="black"/>
<path d="M131.833 35.495C130.24 35.495 129.191 35.064 128.951 34.3065L124.315 20.0542C124.167 19.7233 123.958 19.5535 123.719 19.5535C123.623 19.5535 123.301 19.5927 123.174 20.0716L118.443 34.3022C118.208 35.051 117.128 35.495 115.556 35.495H115.043C113.55 35.495 112.444 35.0335 112.152 34.2892L105.253 15.122C104.778 13.7681 104.177 13.1717 102.789 12.6798C102.157 12.4491 101.975 12.2358 101.975 11.7178C101.975 11.474 102.079 11.0561 102.371 10.8253H114.577C114.899 11.0691 115.073 11.4957 115.073 11.7178C115.073 12.1923 114.851 12.4273 114.155 12.6798C112.596 13.1935 112.827 14.5647 113.232 16.0492L116.632 27.9117C116.723 28.2165 116.941 28.4036 117.202 28.4036C117.463 28.4036 117.681 28.2165 117.768 27.916L122.609 11.7656C122.839 10.8515 124.302 10.5337 125.595 10.5337H126.008C127.65 10.5337 128.816 11.0038 129.047 11.7656L133.422 27.9073C133.513 28.2121 133.748 28.4036 134.018 28.4036C134.288 28.4036 134.523 28.2121 134.615 27.916L138.324 15.8141C138.663 14.6605 138.685 13.951 138.393 13.4373C138.184 13.0672 137.827 12.8235 137.274 12.6711C136.665 12.4491 136.482 12.2314 136.482 11.7178C136.482 11.474 136.587 11.0561 136.878 10.8253H145.271C145.559 11.0561 145.667 11.4783 145.667 11.7178C145.667 12.2358 145.485 12.4491 144.853 12.6798C143.491 13.1456 142.533 13.7507 141.98 15.3178L135.233 34.2978C134.946 35.0335 133.84 35.495 132.347 35.495H131.833Z" fill="black"/>
<path d="M154.216 12.126C153.593 12.4046 152.988 12.7485 152.404 13.1142C152.274 13.2012 152.147 13.2839 152.029 13.3623C152.653 12.8791 153.387 12.4699 154.22 12.126H154.216Z" fill="black"/>
<path d="M169.156 29.8388C169.056 29.73 168.847 29.6821 168.603 29.6821C168.377 29.6821 168.185 29.6909 167.812 29.8388C166.227 30.4918 164.05 31.4016 160.912 31.4016C158.791 31.4016 157.071 30.74 155.683 29.3207C155.356 28.8942 155.13 28.5198 155 28.1628C154.921 27.9931 154.852 27.8364 154.773 27.5403C154.673 27.3009 154.643 27.0049 154.625 26.6697C154.655 26.1168 154.782 25.7382 155.1 25.4638L155.109 25.442C155.436 25.1853 155.97 25.0241 156.801 24.8762C158.573 24.5585 160.128 24.2232 161.495 23.8444C163.524 23.2611 165.13 22.6081 166.274 21.8159C166.274 21.8159 166.288 21.8028 166.313 21.7766C167.628 20.8669 168.421 19.7786 168.721 18.429C168.821 18.0633 168.852 17.3494 168.83 16.875C168.821 16.0348 168.65 15.2817 168.346 14.6287C168.285 14.472 168.216 14.2936 168.098 14.1237C168.037 14.0149 167.959 13.8843 167.859 13.7667C167.859 13.7363 167.819 13.719 167.812 13.6884C167.694 13.5317 167.562 13.3793 167.406 13.2139C167.306 13.1138 167.188 13.0267 167.08 12.9266C166.622 12.5305 166.07 12.1953 165.464 11.8949C165.255 11.7948 165.038 11.699 164.812 11.6163C164.782 11.6076 164.733 11.5858 164.68 11.5684C163.54 11.1505 162.204 10.8762 160.812 10.824C160.633 10.8022 160.437 10.8022 160.258 10.8022C159.1 10.8022 157.864 10.959 156.676 11.2855C156.367 11.3551 156.07 11.4335 155.783 11.5336C155.456 11.612 155.147 11.7295 154.852 11.8601C154.643 11.9384 154.425 12.0168 154.216 12.1169C153.594 12.3955 152.988 12.7394 152.406 13.1051C152.274 13.1922 152.149 13.2749 152.031 13.3532C151.9 13.4316 151.774 13.5317 151.665 13.6318C151.643 13.6318 151.627 13.6536 151.627 13.6536C149.853 14.9509 148.37 16.6921 147.399 18.7033C147.369 18.7817 147.321 18.8601 147.281 18.9427C146.894 19.8438 146.598 20.8147 146.419 21.8943V21.9029C146.319 22.5472 146.271 23.2307 146.271 23.9446C146.271 24.171 146.271 24.4017 146.311 24.6455C146.311 24.7543 146.311 24.8544 146.319 24.9807C146.341 25.2462 146.367 25.4856 146.406 25.7337C147.316 32.7642 153.494 35.3848 158.643 35.485C163.188 35.3848 166.653 34.0397 168.691 31.5627C169.016 31.1448 169.327 30.7094 169.327 30.2349C169.327 30.0566 169.277 29.926 169.156 29.8301V29.8388ZM154.146 20.5142C154.085 19.7829 153.998 17.9894 155.304 16.1393C155.383 16.0087 155.483 15.8912 155.583 15.765C155.692 15.6344 155.84 15.4472 156.049 15.2512C156.149 15.1511 156.258 15.0423 156.383 14.9335H156.392C156.701 14.6679 157.085 14.4067 157.541 14.2108C157.55 14.2021 157.564 14.2021 157.573 14.2021C157.859 14.0715 158.164 13.9845 158.504 13.9366C158.73 13.8973 158.97 13.8757 159.218 13.8757C161.446 13.8757 162.456 14.8376 162.513 16.7053C162.561 18.3202 161.868 20.6666 158.791 21.6374C158.216 21.8332 157.555 21.9638 156.801 22.0553C155 22.2338 154.246 21.9551 154.146 20.5186V20.5142Z" fill="black"/>
</g>
<defs>
<clipPath id="clip0_7910_201">
<rect width="197" height="37" fill="white"/>
</clipPath>
</defs>
</svg>
