<svg width="238" height="37" viewBox="0 0 238 37" fill="none" xmlns="http://www.w3.org/2000/svg">
<g clip-path="url(#clip0_7910_210)">
<path d="M2.68945 28.2797H7.89933V18.3842L11.0493 15.3945L20.3469 28.2797H26.6485L14.6818 12.0009L26.1932 0.327574H19.8564C16.0187 4.52914 9.79893 11.0679 7.89933 13.2529V0.32597H2.68945V28.2797ZM44.7788 18.9485C44.8477 18.3585 44.8745 17.7644 44.859 17.1707C44.859 12.243 42.5153 7.03148 35.5277 7.03148C28.9841 7.03148 25.7123 11.7604 25.7123 18.1806C25.7123 23.5941 28.5801 28.7607 35.2856 28.7607C37.3553 28.9254 39.4174 28.3615 41.1152 27.1666C42.813 25.9717 44.0398 24.2208 44.5832 22.2171H39.5289C39.2515 23.0506 38.6927 23.7617 37.9482 24.2282C37.2038 24.6948 36.3203 24.8877 35.4491 24.7739C32.3392 24.7739 30.7635 22.068 30.7635 18.9581L44.7788 18.9485ZM30.8821 15.7568C31.1658 12.8072 32.4178 10.7072 35.4876 10.7072C38.5574 10.7072 39.7693 12.9691 39.8158 15.7568H30.8821ZM65.4612 18.9485C65.5301 18.3585 65.5569 17.7644 65.5414 17.1707C65.5414 12.243 63.1977 7.03148 56.2101 7.03148C49.6665 7.03148 46.3947 11.7604 46.3947 18.1806C46.3947 23.5941 49.2625 28.7607 55.968 28.7607C58.0376 28.9254 60.0998 28.3615 61.7976 27.1666C63.4954 25.9717 64.7222 24.2208 65.2656 22.2171H60.208C59.9307 23.0503 59.3721 23.7612 58.6281 24.2277C57.884 24.6942 57.0008 24.8873 56.1299 24.7739C53.02 24.7739 51.4442 22.068 51.4442 18.9581L65.4612 18.9485ZM51.5645 15.7568C51.8482 12.8072 53.1002 10.7072 56.17 10.7072C59.2398 10.7072 60.4517 12.9691 60.4982 15.7568H51.5645ZM68.2072 28.2797H73.2167V16.8886C73.2167 13.0509 74.6723 11.1529 77.6203 11.1529C80.3663 11.1529 81.296 13.0108 81.296 15.5965V28.2797H86.3055V15.0306C86.3055 9.69893 83.4777 7.03308 79.398 7.03308C78.1481 6.92513 76.8943 7.18965 75.7945 7.79331C74.6947 8.39696 73.7983 9.31271 73.2183 10.4251C73.2143 9.45138 73.1468 8.47895 73.0163 7.51399H68.1671C68.2072 9.08978 68.2072 10.9477 68.2072 12.7255V28.2797ZM96.9673 28.2797H99.8784V2.63114H109.21V0.087118H87.6793V2.63114H96.9769L96.9673 28.2797ZM114.62 7.47712C108.642 7.47712 105.322 12.243 105.322 18.1405C105.322 24.2321 108.756 28.7639 114.412 28.7639C120.551 28.7639 123.783 23.8361 123.783 18.0588C123.783 11.6771 120.146 7.47873 114.615 7.47873L114.62 7.47712ZM114.498 9.86565C118.7 9.86565 120.96 13.4196 120.96 18.1469C120.96 23.0346 118.658 26.3866 114.578 26.3866C110.571 26.3866 108.116 22.7909 108.116 18.1053C108.116 13.3394 110.215 9.86565 114.498 9.86565ZM127.343 28.2846H136.962C144.959 28.2846 150.211 22.3068 150.211 13.9037C150.211 5.50058 144.834 0.087118 137.037 0.087118H127.343V28.2846ZM130.211 2.63595H136.634C144.026 2.63595 147.136 8.12956 147.136 14.0271C147.136 20.7326 143.702 25.7421 136.634 25.7421H130.211V2.63595ZM169.837 18.5509C169.877 18.0251 169.877 17.4592 169.877 16.8549C169.877 12.8152 167.817 7.48354 161.395 7.48354C155.376 7.48354 152.428 12.4113 152.428 18.3088C152.428 23.5187 154.891 28.7719 161.193 28.7719C163.036 28.892 164.863 28.3706 166.365 27.2961C167.867 26.2216 168.951 24.6604 169.433 22.8775H166.687C166.307 23.9838 165.568 24.931 164.587 25.568C163.606 26.2049 162.44 26.4948 161.275 26.3914C157.559 26.3914 155.183 23.2815 155.183 18.5557L169.837 18.5509ZM155.295 16.4381C155.699 12.4786 157.435 9.77267 161.355 9.77267C165.111 9.77267 167.051 12.7223 167.091 16.4381H155.295ZM171.486 22.5777C172.012 26.215 174.596 28.7574 179.525 28.7574C184.174 28.7574 187.079 26.3337 187.079 22.698C187.079 19.6682 185.745 17.6885 179.807 16.2746C175.93 15.3448 175.042 14.4968 175.042 12.8008C175.042 11.3068 175.971 9.73099 179.21 9.73099C180.305 9.6122 181.405 9.90663 182.295 10.5566C183.184 11.2066 183.799 12.1653 184.019 13.2449H186.688C186.367 10.377 184.184 7.47392 179.296 7.47392C174.449 7.47392 172.312 10.1798 172.312 13.0076C172.312 15.7135 173.564 17.4111 179.097 18.7433C183.339 19.7532 184.267 20.7631 184.267 22.9112C184.267 25.0112 182.933 26.5068 179.618 26.5068C178.395 26.6199 177.171 26.2851 176.176 25.5645C175.18 24.844 174.48 23.7867 174.205 22.589L171.486 22.5777ZM190.269 28.2733H192.975V7.96124H190.269V28.2733ZM192.975 2.70488V-1.4502H190.269V2.7177L192.975 2.70488ZM213.814 13.8123C213.814 11.8727 213.895 8.88459 213.895 7.95483H211.347C211.307 8.39887 211.225 9.81275 211.187 10.8659C210.661 9.37191 208.965 7.47392 204.935 7.47392C200.088 7.47392 196.21 11.3917 196.21 18.1373C196.21 24.277 199.724 28.2365 204.611 28.2365C208.165 28.2365 210.105 26.8627 211.195 24.3988V26.2952C211.195 31.2229 209.903 34.4146 204.893 34.4146C203.671 34.5412 202.443 34.2289 201.429 33.5335C200.415 32.8381 199.682 31.8049 199.36 30.6186H196.627C197.071 33.5682 199.131 36.7582 204.786 36.7582C211.038 36.7582 213.834 33.2043 213.834 26.7008L213.814 13.8123ZM199.03 18.0139C199.03 13.4901 200.928 9.85443 205.209 9.85443C209.815 9.85443 211.269 12.7223 211.269 17.7318C211.269 22.6595 209.855 25.8079 205.089 25.8079C201.424 25.8159 199.042 22.5842 199.042 18.0203L199.03 18.0139ZM218.54 28.2733H221.246V17.7366C221.246 13.4549 222.862 9.94099 227.224 9.94099C230.577 9.94099 231.953 12.1628 231.953 15.5148V28.2797H234.659V15.1557C234.659 9.62199 231.549 7.48033 227.833 7.48033C226.438 7.36515 225.043 7.70408 223.857 8.44656C222.67 9.18903 221.756 10.2952 221.249 11.6001C221.289 10.9942 221.209 8.57039 221.127 7.96284H218.502C218.542 9.53863 218.542 11.3164 218.542 13.0926L218.54 28.2733Z" fill="black"/>
</g>
<defs>
<clipPath id="clip0_7910_210">
<rect width="238" height="37" fill="white"/>
</clipPath>
</defs>
</svg>
