<svg width="207" height="38" viewBox="0 0 207 38" fill="none" xmlns="http://www.w3.org/2000/svg">
<g clip-path="url(#clip0_7911_329)">
<path d="M154.216 13.0093C153.593 13.2879 152.988 13.6318 152.404 13.9975C152.274 14.0845 152.147 14.1672 152.029 14.2456C152.653 13.7624 153.387 13.3532 154.22 13.0093H154.216Z" fill="black"/>
<path fill-rule="evenodd" clip-rule="evenodd" d="M14.9025 8.30855L16.8802 4.8833L22.4872 8.12105L20.5102 11.5456C20.163 12.1463 20.6827 12.8768 21.3637 12.7456L25.1527 12.0143L26.379 18.3721L22.59 19.1026C16.461 20.2846 11.7817 13.7146 14.9025 8.30855Z" fill="black"/>
<path fill-rule="evenodd" clip-rule="evenodd" d="M11.4765 31.458L9.49875 34.8833L3.891 31.6463L5.86875 28.2211C6.216 27.6203 5.69625 26.8898 5.0145 27.0211L1.22625 27.7516L0 21.3946L3.789 20.6641C9.918 19.4821 14.5965 26.052 11.4765 31.458Z" fill="black"/>
<path fill-rule="evenodd" clip-rule="evenodd" d="M11.6475 8.30855L9.6705 4.8833L4.06275 8.12105L6.0405 11.5456C6.387 12.1463 5.868 12.8768 5.18625 12.7456L1.39725 12.0143L0.1725 18.3721L3.96075 19.1026C10.0905 20.2846 14.769 13.7146 11.6475 8.30855Z" fill="black"/>
<path fill-rule="evenodd" clip-rule="evenodd" d="M14.7375 31.458L16.7138 34.8833L22.3215 31.6463L20.3438 28.2211C19.9972 27.6203 20.5162 26.8898 21.198 27.0211L24.9862 27.7516L26.2125 21.3946L22.4235 20.6641C16.2945 19.4821 11.616 26.052 14.736 31.458H14.7375Z" fill="black"/>
<path d="M40.7654 34.3153C39.0854 34.3153 37.5014 34.0153 36.0134 33.4153C34.5494 32.7913 33.2774 31.9153 32.1974 30.7873C31.1414 29.6593 30.3494 28.3273 29.8214 26.7913L34.3934 24.7393C35.0654 26.2033 35.9894 27.3553 37.1654 28.1953C38.3654 29.0353 39.6854 29.4553 41.1254 29.4553C41.8934 29.4553 42.5534 29.3353 43.1054 29.0953C43.6574 28.8553 44.0894 28.5313 44.4014 28.1233C44.7134 27.6913 44.8694 27.1873 44.8694 26.6113C44.8694 25.9873 44.6774 25.4593 44.2934 25.0273C43.9094 24.5713 43.3094 24.2113 42.4934 23.9473L37.2374 22.2193C35.1014 21.5233 33.4934 20.5393 32.4134 19.2673C31.3334 17.9713 30.7934 16.4233 30.7934 14.6233C30.7934 13.0393 31.1774 11.6473 31.9454 10.4473C32.7374 9.2473 33.8294 8.3113 35.2214 7.6393C36.6374 6.9673 38.2574 6.6313 40.0814 6.6313C41.6894 6.6313 43.1774 6.9073 44.5454 7.4593C45.9134 8.0113 47.0894 8.7913 48.0734 9.7993C49.0814 10.8073 49.8374 12.0193 50.3414 13.4353L45.8054 15.4873C45.3014 14.2393 44.5454 13.2673 43.5374 12.5713C42.5294 11.8513 41.3774 11.4913 40.0814 11.4913C39.3374 11.4913 38.6774 11.6113 38.1014 11.8513C37.5254 12.0913 37.0814 12.4393 36.7694 12.8953C36.4574 13.3273 36.3014 13.8313 36.3014 14.4073C36.3014 15.0313 36.5054 15.5833 36.9134 16.0633C37.3214 16.5193 37.9334 16.8793 38.7494 17.1433L43.8974 18.7993C46.0574 19.4953 47.6654 20.4673 48.7214 21.7153C49.8014 22.9633 50.3414 24.4873 50.3414 26.2873C50.3414 27.8473 49.9334 29.2393 49.1174 30.4633C48.3014 31.6633 47.1734 32.6113 45.7334 33.3073C44.3174 33.9793 42.6614 34.3153 40.7654 34.3153ZM53.562 33.8833V14.2273H58.602V19.0153L58.062 18.2233C58.35 16.7113 59.046 15.5953 60.15 14.8753C61.254 14.1553 62.574 13.7953 64.11 13.7953C65.742 13.7953 67.17 14.2153 68.394 15.0553C69.642 15.8713 70.422 16.9753 70.734 18.3673L69.186 18.5113C69.834 16.9033 70.758 15.7153 71.958 14.9473C73.158 14.1793 74.562 13.7953 76.17 13.7953C77.586 13.7953 78.834 14.1073 79.914 14.7313C81.018 15.3553 81.882 16.2313 82.506 17.3593C83.13 18.4633 83.442 19.7593 83.442 21.2473V33.8833H78.042V22.3993C78.042 21.6313 77.898 20.9713 77.61 20.4193C77.346 19.8673 76.962 19.4353 76.458 19.1233C75.954 18.8113 75.342 18.6553 74.622 18.6553C73.926 18.6553 73.314 18.8113 72.786 19.1233C72.282 19.4353 71.886 19.8673 71.598 20.4193C71.334 20.9713 71.202 21.6313 71.202 22.3993V33.8833H65.802V22.3993C65.802 21.6313 65.658 20.9713 65.37 20.4193C65.106 19.8673 64.722 19.4353 64.218 19.1233C63.714 18.8113 63.102 18.6553 62.382 18.6553C61.686 18.6553 61.074 18.8113 60.546 19.1233C60.042 19.4353 59.646 19.8673 59.358 20.4193C59.094 20.9713 58.962 21.6313 58.962 22.3993V33.8833H53.562ZM92.7195 34.3153C91.3035 34.3153 90.0795 34.0873 89.0475 33.6313C88.0155 33.1753 87.2235 32.5273 86.6715 31.6873C86.1195 30.8233 85.8435 29.8033 85.8435 28.6273C85.8435 27.5233 86.0955 26.5513 86.5995 25.7113C87.1035 24.8473 87.8715 24.1273 88.9035 23.5513C89.9595 22.9753 91.2675 22.5673 92.8275 22.3273L98.8395 21.3553V25.3153L93.7995 26.2153C93.0315 26.3593 92.4435 26.6113 92.0355 26.9713C91.6275 27.3073 91.4235 27.7993 91.4235 28.4473C91.4235 29.0473 91.6515 29.5153 92.1075 29.8513C92.5635 30.1873 93.1275 30.3553 93.7995 30.3553C94.6875 30.3553 95.4675 30.1633 96.1395 29.7793C96.8115 29.3953 97.3275 28.8793 97.6875 28.2313C98.0715 27.5593 98.2635 26.8273 98.2635 26.0353V20.9233C98.2635 20.1793 97.9635 19.5553 97.3635 19.0513C96.7875 18.5473 95.9955 18.2953 94.9875 18.2953C94.0275 18.2953 93.1755 18.5593 92.4315 19.0873C91.7115 19.6153 91.1835 20.3113 90.8475 21.1753L86.5275 19.1233C86.9115 18.0193 87.5235 17.0713 88.3635 16.2793C89.2035 15.4873 90.2115 14.8753 91.3875 14.4433C92.5635 14.0113 93.8475 13.7953 95.2395 13.7953C96.8955 13.7953 98.3595 14.0953 99.6315 14.6953C100.904 15.2953 101.888 16.1353 102.584 17.2153C103.304 18.2713 103.664 19.5073 103.664 20.9233V33.8833H98.6235V30.7153L99.8475 30.4993C99.2715 31.3633 98.6355 32.0833 97.9395 32.6593C97.2435 33.2113 96.4635 33.6193 95.5995 33.8833C94.7355 34.1713 93.7755 34.3153 92.7195 34.3153ZM107.264 33.8833V14.2273H112.304V18.9433L111.944 18.2593C112.376 16.6033 113.084 15.4873 114.068 14.9113C115.076 14.3113 116.264 14.0113 117.632 14.0113H118.784V18.6913H117.092C115.772 18.6913 114.704 19.0993 113.888 19.9153C113.072 20.7073 112.664 21.8353 112.664 23.2993V33.8833H107.264ZM130.962 34.0993C128.586 34.0993 126.738 33.4633 125.418 32.1913C124.122 30.8953 123.474 29.0953 123.474 26.7913V18.9073H120.162V14.2273H120.342C121.35 14.2273 122.118 13.9753 122.646 13.4713C123.198 12.9673 123.474 12.2113 123.474 11.2033V9.7633H128.874V14.2273H133.482V18.9073H128.874V26.4313C128.874 27.1033 128.994 27.6673 129.234 28.1233C129.474 28.5553 129.846 28.8793 130.35 29.0953C130.854 29.3113 131.478 29.4193 132.222 29.4193C132.39 29.4193 132.582 29.4073 132.798 29.3833C133.014 29.3593 133.242 29.3353 133.482 29.3113V33.8833C133.122 33.9313 132.714 33.9793 132.258 34.0273C131.802 34.0753 131.37 34.0993 130.962 34.0993ZM136.286 33.8833V6.6313H141.686V33.8833H136.286ZM151.362 34.3153C149.946 34.3153 148.722 34.0873 147.69 33.6313C146.658 33.1753 145.866 32.5273 145.314 31.6873C144.762 30.8233 144.486 29.8033 144.486 28.6273C144.486 27.5233 144.738 26.5513 145.242 25.7113C145.746 24.8473 146.514 24.1273 147.546 23.5513C148.602 22.9753 149.91 22.5673 151.47 22.3273L157.482 21.3553V25.3153L152.442 26.2153C151.674 26.3593 151.086 26.6113 150.678 26.9713C150.27 27.3073 150.066 27.7993 150.066 28.4473C150.066 29.0473 150.294 29.5153 150.75 29.8513C151.206 30.1873 151.77 30.3553 152.442 30.3553C153.33 30.3553 154.11 30.1633 154.782 29.7793C155.454 29.3953 155.97 28.8793 156.33 28.2313C156.714 27.5593 156.906 26.8273 156.906 26.0353V20.9233C156.906 20.1793 156.606 19.5553 156.006 19.0513C155.43 18.5473 154.638 18.2953 153.63 18.2953C152.67 18.2953 151.818 18.5593 151.074 19.0873C150.354 19.6153 149.826 20.3113 149.49 21.1753L145.17 19.1233C145.554 18.0193 146.166 17.0713 147.006 16.2793C147.846 15.4873 148.854 14.8753 150.03 14.4433C151.206 14.0113 152.49 13.7953 153.882 13.7953C155.538 13.7953 157.002 14.0953 158.274 14.6953C159.546 15.2953 160.53 16.1353 161.226 17.2153C161.946 18.2713 162.306 19.5073 162.306 20.9233V33.8833H157.266V30.7153L158.49 30.4993C157.914 31.3633 157.278 32.0833 156.582 32.6593C155.886 33.2113 155.106 33.6193 154.242 33.8833C153.378 34.1713 152.418 34.3153 151.362 34.3153ZM165.906 33.8833V14.2273H170.946V18.1153L170.658 17.2513C171.114 16.0753 171.846 15.2113 172.854 14.6593C173.886 14.0833 175.086 13.7953 176.454 13.7953C177.942 13.7953 179.238 14.1073 180.342 14.7313C181.47 15.3553 182.346 16.2313 182.97 17.3593C183.594 18.4633 183.906 19.7593 183.906 21.2473V33.8833H178.506V22.3993C178.506 21.6313 178.35 20.9713 178.038 20.4193C177.75 19.8673 177.33 19.4353 176.778 19.1233C176.25 18.8113 175.626 18.6553 174.906 18.6553C174.21 18.6553 173.586 18.8113 173.034 19.1233C172.482 19.4353 172.05 19.8673 171.738 20.4193C171.45 20.9713 171.306 21.6313 171.306 22.3993V33.8833H165.906ZM196.565 34.3153C194.477 34.3153 192.665 33.8593 191.129 32.9473C189.593 32.0113 188.405 30.7633 187.565 29.2033C186.725 27.6433 186.305 25.9153 186.305 24.0193C186.305 22.0513 186.737 20.2993 187.601 18.7633C188.489 17.2273 189.677 16.0153 191.165 15.1273C192.653 14.2393 194.333 13.7953 196.205 13.7953C197.765 13.7953 199.145 14.0473 200.345 14.5513C201.545 15.0313 202.553 15.7153 203.369 16.6033C204.209 17.4913 204.845 18.5233 205.277 19.6993C205.709 20.8513 205.925 22.1113 205.925 23.4793C205.925 23.8633 205.901 24.2473 205.853 24.6313C205.829 24.9913 205.769 25.3033 205.673 25.5673H190.949V21.6073H202.613L200.057 23.4793C200.297 22.4473 200.285 21.5353 200.021 20.7433C199.757 19.9273 199.289 19.2913 198.617 18.8353C197.969 18.3553 197.165 18.1153 196.205 18.1153C195.269 18.1153 194.465 18.3433 193.793 18.7993C193.121 19.2553 192.617 19.9273 192.281 20.8153C191.945 21.7033 191.813 22.7833 191.885 24.0553C191.789 25.1593 191.921 26.1313 192.281 26.9713C192.641 27.8113 193.193 28.4713 193.937 28.9513C194.681 29.4073 195.581 29.6353 196.637 29.6353C197.597 29.6353 198.413 29.4433 199.085 29.0593C199.781 28.6753 200.321 28.1473 200.705 27.4753L205.025 29.5273C204.641 30.4873 204.029 31.3273 203.189 32.0473C202.373 32.7673 201.401 33.3313 200.273 33.7393C199.145 34.1233 197.909 34.3153 196.565 34.3153Z" fill="#101010"/>
</g>
<defs>
<clipPath id="clip0_7911_329">
<rect width="207" height="37" fill="white" transform="translate(0 0.883301)"/>
</clipPath>
</defs>
</svg>
