<svg width="271" height="37" viewBox="0 0 271 37" fill="none" xmlns="http://www.w3.org/2000/svg">
<g clip-path="url(#clip0_7910_201)">
<path d="M154.216 12.126C153.593 12.4046 152.988 12.7485 152.404 13.1142C152.274 13.2012 152.147 13.2839 152.029 13.3623C152.653 12.8791 153.387 12.4699 154.22 12.126H154.216Z" fill="black"/>
<path d="M148.869 12.8084C148.457 12.3375 147.98 11.89 147.421 11.4779C146.544 10.8363 145.566 10.3123 144.471 9.912C143.382 9.51168 142.24 9.31152 141.039 9.31152C138.891 9.31152 136.965 9.85902 135.258 10.9481C133.557 12.0372 132.209 13.5266 131.232 15.4164C130.248 17.3061 129.76 19.4607 129.76 21.8862C129.76 24.3116 130.26 26.4663 131.255 28.356C132.25 30.2458 133.61 31.7352 135.329 32.8243C137.048 33.9134 138.996 34.4609 141.175 34.4609C142.246 34.4609 143.294 34.2784 144.307 33.9075C145.319 33.5366 146.238 33.048 147.068 32.4357C147.803 31.8941 148.392 31.3054 148.863 30.6755V44.1274H153.461V10.0592H148.869V12.8084ZM148.11 26.1131C147.48 27.3435 146.614 28.3089 145.508 29.0154C144.401 29.7218 143.129 30.075 141.687 30.075C140.245 30.075 138.973 29.7218 137.866 29.0154C136.759 28.3089 135.894 27.3376 135.264 26.0895C134.634 24.8474 134.322 23.4404 134.322 21.8744C134.322 20.3085 134.634 18.9074 135.264 17.6593C135.894 16.4172 136.759 15.434 137.866 14.7099C138.973 13.9917 140.245 13.6267 141.687 13.6267C143.129 13.6267 144.401 13.9799 145.508 14.6864C146.614 15.3928 147.48 16.3642 148.11 17.6122C148.74 18.8544 149.052 20.2732 149.052 21.8685C149.052 23.4757 148.734 24.8886 148.11 26.1131Z" fill="black"/>
<path d="M176.467 24.4468C176.467 25.3004 176.314 26.0952 176.008 26.8252C175.702 27.5551 175.284 28.1851 174.748 28.7031C174.212 29.2212 173.582 29.6274 172.847 29.9158C172.117 30.2043 171.304 30.3515 170.421 30.3515C169.232 30.3515 168.213 30.0748 167.377 29.5273C166.536 28.9798 165.9 28.1909 165.452 27.1725C165.011 26.1481 164.787 24.9354 164.787 23.5343V9.98828H160.189V24.8177C160.189 26.8016 160.531 28.5088 161.22 29.9453C161.908 31.3817 162.88 32.4944 164.151 33.2891C165.417 34.0838 166.859 34.4783 168.496 34.4783C169.868 34.4783 171.151 34.2134 172.34 33.6776C173.529 33.1419 174.56 32.4178 175.431 31.5053C175.831 31.0874 176.167 30.6399 176.461 30.1749V34.0191H181.059V9.98828H176.461V24.4468H176.467Z" fill="black"/>
<path d="M117.402 13.6269V10.0123H112.811V33.8606H117.402V21.2035C117.402 16.6116 120.093 13.9684 124.437 13.9684H126.492V9.77091C125.562 9.57664 124.879 9.47656 124.049 9.47656C120.776 9.47656 118.38 11.1367 117.402 13.6269Z" fill="black"/>
<path d="M198.466 30.6344C193.922 30.6344 191.284 27.8499 190.943 22.8165L209.416 22.7694V21.0563C209.416 13.9683 204.972 9.28223 198.178 9.28223C191.237 9.28223 186.498 14.4628 186.498 21.9393C186.498 29.3687 191.337 34.4492 198.372 34.4492C204.283 34.4492 208.292 31.5646 209.463 26.437H205.166C204.383 29.1686 202.034 30.6344 198.466 30.6344ZM198.178 13.1382C202.234 13.1382 204.824 15.7756 204.824 19.7376H191.043C191.626 15.5342 194.169 13.1382 198.178 13.1382Z" fill="black"/>
<path d="M221.219 2.48877H216.622V9.96528H211.93V13.8213H216.622V33.8607H221.219V13.8213H225.905V9.96528H221.219V2.48877Z" fill="black"/>
<path d="M238.11 2.48877H233.518V9.96528H228.826V13.8213H233.518V33.8607H238.11V13.8213H242.802V9.96528H238.11V2.48877Z" fill="black"/>
<path d="M263.73 26.4311C262.947 29.1686 260.604 30.6344 257.037 30.6344C252.492 30.6344 249.854 27.8499 249.513 22.8165L267.987 22.7694V21.0563C267.987 13.9683 263.542 9.28223 256.748 9.28223C249.807 9.28223 245.068 14.4628 245.068 21.9393C245.068 29.3687 249.907 34.4492 256.942 34.4492C262.853 34.4492 266.862 31.5646 268.034 26.437H263.73V26.4311ZM256.742 13.1382C260.798 13.1382 263.389 15.7756 263.389 19.7376H249.607C250.19 15.5342 252.733 13.1382 256.742 13.1382Z" fill="black"/>
<path d="M95.9319 2.56494H91.2753H90.9868L77.9941 33.8603H82.9392L86.0888 26.272H101.112L104.262 33.8603H109.207L96.2204 2.56494H95.9319ZM87.796 22.1569L93.6006 8.16938L99.4052 22.1569H87.796Z" fill="black"/>
<path d="M30.2462 2.60596L17.9894 21.3443L5.72678 2.60596H1.11724H1.10547V33.8837H5.72678V9.65861L15.6464 24.8177H15.717H20.2559H20.3325L30.2462 9.65272V33.8837H34.8734V2.60596H34.8557H30.2462Z" fill="black"/>
<path d="M59.4626 2H57.1078V17.059H42.0547V19.4138H57.1078V34.4728H59.4626V19.4138H74.5216V17.059H59.4626V2Z" fill="black"/>
</g>
<defs>
<clipPath id="clip0_7910_201">
<rect width="271" height="37" fill="white"/>
</clipPath>
</defs>
</svg>
